<?xml version="1.0" encoding="UTF-8" standalone="no"?>
<svg version="1.0" xmlns="http://www.w3.org/2000/svg" width="727" height="698" viewBox="148 163 727 698" preserveAspectRatio="xMidYMid meet">
<g transform="translate(0.000000,1024.000000) scale(0.100000,-0.100000)"
fill="#ffffff" stroke="#ffffff" stroke-width="600" stroke-linejoin="round" paint-order="stroke">
<path d="M4863 8199 c-1914 -104 -3239 -1741 -2928 -3619 250 -1511 1516
-2545 3110 -2542 684 1 1284 196 1800 586 92 70 305 254 305 264 0 4 -146 153
-323 330 l-324 324 -77 -69 c-395 -349 -856 -514 -1401 -500 -400 10 -707 97
-1044 296 -1147 679 -1364 2375 -429 3356 625 656 1646 839 2441 439 160 -80
372 -230 466 -328 19 -20 38 -36 42 -36 7 0 528 517 612 608 48 51 52 43 -112
185 -440 380 -956 612 -1526 687 -86 11 -390 31 -440 28 -16 0 -94 -4 -172 -9z"/>
<path d="M4435 6498 c-13 -55 -105 -510 -105 -518 0 -6 272 -10 740 -10 407 0
740 -4 740 -9 0 -4 -35 -41 -77 -82 -256 -241 -1339 -1287 -1585 -1529 -158
-155 -158 -155 -203 -373 -25 -121 -45 -228 -45 -238 0 -19 28 -19 1248 -19
l1248 0 52 258 c29 142 52 265 52 275 0 16 -52 17 -791 19 l-791 3 388 375
388 375 684 5 c684 5 684 5 708 33 31 36 31 78 0 114 -24 28 -24 28 -605 31
-322 1 -581 6 -581 11 0 5 56 61 124 125 l123 116 780 0 c780 0 780 0 807 25
35 32 36 92 3 123 -22 21 -23 21 -705 23 -376 1 -685 6 -688 11 -3 4 47 59
112 121 l116 112 865 5 c865 5 865 5 889 33 23 27 31 68 18 102 -18 45 -17 45
-824 45 -721 0 -761 1 -756 18 3 9 10 40 15 67 6 28 24 116 41 197 16 81 30
154 30 163 0 13 -127 15 -1205 15 -1205 0 -1205 0 -1210 -22z"/>
</g>
<g transform="translate(0.000000,1024.000000) scale(0.100000,-0.100000)"
fill="#04254a" stroke="none">
<path d="M4863 8199 c-1914 -104 -3239 -1741 -2928 -3619 250 -1511 1516
-2545 3110 -2542 684 1 1284 196 1800 586 92 70 305 254 305 264 0 4 -146 153
-323 330 l-324 324 -77 -69 c-395 -349 -856 -514 -1401 -500 -400 10 -707 97
-1044 296 -1147 679 -1364 2375 -429 3356 625 656 1646 839 2441 439 160 -80
372 -230 466 -328 19 -20 38 -36 42 -36 7 0 528 517 612 608 48 51 52 43 -112
185 -440 380 -956 612 -1526 687 -86 11 -390 31 -440 28 -16 0 -94 -4 -172 -9z"/>
</g>
<g transform="translate(0.000000,1024.000000) scale(0.100000,-0.100000)"
fill="#ff5908" stroke="none">
<path d="M4435 6498 c-13 -55 -105 -510 -105 -518 0 -6 272 -10 740 -10 407 0
740 -4 740 -9 0 -4 -35 -41 -77 -82 -256 -241 -1339 -1287 -1585 -1529 -158
-155 -158 -155 -203 -373 -25 -121 -45 -228 -45 -238 0 -19 28 -19 1248 -19
l1248 0 52 258 c29 142 52 265 52 275 0 16 -52 17 -791 19 l-791 3 388 375
388 375 684 5 c684 5 684 5 708 33 31 36 31 78 0 114 -24 28 -24 28 -605 31
-322 1 -581 6 -581 11 0 5 56 61 124 125 l123 116 780 0 c780 0 780 0 807 25
35 32 36 92 3 123 -22 21 -23 21 -705 23 -376 1 -685 6 -688 11 -3 4 47 59
112 121 l116 112 865 5 c865 5 865 5 889 33 23 27 31 68 18 102 -18 45 -17 45
-824 45 -721 0 -761 1 -756 18 3 9 10 40 15 67 6 28 24 116 41 197 16 81 30
154 30 163 0 13 -127 15 -1205 15 -1205 0 -1205 0 -1210 -22z"/>
</g>
</svg>
